<svg width="1120" height="1120" version="1.1" xmlns="http://www.w3.org/2000/svg" desc="Created with imagetracer.js version 1.2.6" ><path fill="rgb(0,0,0)" stroke="rgb(0,0,0)" stroke-width="1" opacity="0" d="M 0 0 L 1120 0 L 1120 1120 L 0 1120 L 0 0 Z M 372 221 L 366 223 L 360 229 L 359 233 L 360 242 L 371 255 L 372 258 L 371 286 L 369 291 L 369 296 L 363 319 L 363 323 L 350 365 L 338 396 L 316 442 L 302 467 L 281 501 L 264 525 L 255 535 L 252 541 Q 253 554 260 561 Q 269 571 283 576 L 292 576 L 307 566 Q 325 549 339 529 L 373 477 L 375 477 L 380 481 Q 391 490 397 505 L 411 561 Q 415 572 423 580 L 432 585 L 440 587 L 452 587 L 466 581 Q 477 572 483 557 L 486 546 L 486 537 L 487 536 L 485 519 L 475 498 L 462 484 L 438 471 L 423 467 L 420 465 L 416 465 L 397 460 L 385 459 L 383 458 L 400 425 L 415 389 L 419 385 L 432 383 L 450 378 L 461 377 L 466 375 L 478 374 L 485 372 L 519 370 L 527 367 Q 532 364 533 357 L 532 349 L 522 334 L 495 309 L 483 302 L 471 303 L 464 311 L 459 321 L 436 335 L 434 336 L 441 309 L 453 296 L 459 283 L 458 267 L 454 260 Q 437 241 412 231 L 394 224 L 390 224 L 382 221 L 372 221 Z M 701 232 Q 693 233 690 238 Q 687 237 688 240 Q 683 246 675 250 L 668 251 L 665 253 L 648 257 L 645 259 L 626 263 L 601 271 L 593 272 L 590 274 L 586 274 L 579 277 L 566 279 L 561 281 Q 549 283 543 279 L 537 279 L 531 281 L 524 289 L 522 298 L 522 306 L 523 307 L 524 318 L 530 328 Q 537 335 547 339 L 560 342 L 579 342 L 590 340 L 610 352 L 615 363 L 617 394 L 616 395 L 603 396 L 597 398 L 590 398 L 571 402 L 557 403 L 551 405 L 536 406 L 507 411 L 501 411 L 500 412 L 494 412 L 493 413 L 486 413 L 479 415 L 460 416 L 459 417 L 447 417 L 437 410 L 431 410 L 425 417 L 425 425 L 430 436 L 443 446 L 465 454 L 479 455 L 485 457 L 494 457 L 495 458 L 511 458 L 514 459 L 567 459 L 568 458 L 604 458 L 605 457 L 620 457 L 621 460 L 623 521 L 624 522 L 625 569 L 626 570 L 626 601 L 627 602 L 627 641 L 628 644 L 627 647 L 628 649 L 628 698 L 628 700 L 629 705 L 629 768 L 630 769 L 629 771 L 629 788 L 628 791 L 624 794 Q 619 793 618 795 L 616 794 L 596 793 L 595 792 L 584 792 L 583 791 L 567 791 L 563 792 L 558 797 L 559 805 L 564 809 L 581 816 L 586 820 L 602 838 L 637 889 L 649 896 L 658 898 L 676 897 Q 688 894 697 887 Q 707 878 713 865 L 718 850 Q 717 843 720 840 L 720 833 L 721 832 L 721 823 L 722 822 L 722 760 L 721 759 L 720 719 L 720 717 L 719 715 L 719 699 L 718 698 L 719 696 L 717 685 L 716 652 L 715 651 L 715 638 L 714 637 L 713 609 L 712 608 L 712 589 L 711 588 L 711 571 L 710 570 L 710 550 L 709 549 L 709 528 L 708 527 L 708 503 L 707 502 L 707 475 L 706 474 L 707 472 L 706 471 L 706 456 L 709 454 L 711 454 Q 718 451 731 453 L 732 452 L 757 452 L 759 451 L 761 451 L 823 451 L 824 452 L 839 452 L 848 454 L 860 449 Q 865 444 867 437 L 867 425 Q 864 415 858 409 Q 843 393 825 381 L 800 368 L 776 359 Q 765 357 759 360 Q 748 365 742 374 L 739 375 L 706 380 L 706 374 L 713 367 L 713 360 L 711 353 L 706 343 L 692 332 L 677 326 L 696 321 L 713 319 L 758 310 Q 768 312 774 309 Q 779 304 781 297 L 781 284 L 776 274 L 758 257 L 727 238 L 714 232 L 701 232 Z M 493 590 L 489 592 L 485 598 L 485 607 L 486 608 Q 488 619 484 626 L 474 648 L 462 669 L 434 708 L 416 729 Q 388 759 354 782 L 317 801 L 294 808 L 282 808 L 275 814 L 275 822 L 279 829 Q 286 837 296 842 L 307 847 L 322 850 L 339 850 L 347 848 L 353 848 L 358 846 L 367 845 L 378 841 Q 412 828 438 805 L 440 801 L 446 797 Q 448 798 447 796 L 451 793 L 464 779 Q 463 776 466 777 L 487 748 L 505 715 L 517 684 L 521 668 L 522 654 L 523 653 L 522 650 L 523 648 L 521 632 L 517 619 Q 511 605 503 595 L 496 590 L 493 590 Z " /><path fill="rgb(217,169,160)" stroke="rgb(217,169,160)" stroke-width="1" opacity="1" d="M 370.5 222 L 382.5 222 L 414.5 233 L 443.5 250 L 453 259.5 L 458 270.5 L 458 280.5 L 456 288.5 L 447.5 300 Q 445.3 299.3 446 301.5 L 441 306.5 L 432 338 L 453.5 326 L 460 320.5 Q 463.6 310.6 470.5 304 Q 474 301.5 481.5 303 L 494.5 310 L 520 332.5 L 528 342.5 L 532 350.5 L 532 356.5 Q 531.1 363.1 526.5 366 L 520.5 369 L 494.5 370 L 478.5 373 L 471.5 373 L 466.5 375 L 455.5 376 L 427.5 383 L 418.5 384 L 415 386.5 Q 400.3 425 382 459 Q 390.4 461.8 402.5 462 L 410.5 465 L 422.5 467 L 444.5 475 L 461.5 485 L 474 497.5 L 481 509.5 L 484 517.5 L 486 528.5 L 485 531.5 L 486 536.5 L 485 537.5 L 485 546.5 L 481 559.5 Q 476 571.5 466.5 579 Q 458.9 585.4 446.5 587 L 431.5 584 Q 424 581 420 574.5 L 411 558.5 L 406 540.5 L 404 525.5 L 397 502.5 Q 390.5 488 378.5 479 Q 376.4 475.1 371 476 Q 354.9 505.7 335 532.5 Q 322.8 549.8 307.5 564 L 293.5 574 Q 288.8 576.2 280.5 575 L 262 561.5 L 253 547.5 L 253 539.5 L 278 506.5 L 301 470.5 L 317 441.5 L 339 395.5 L 350 366.5 L 354 351.5 L 356 349.5 L 365 317.5 L 366 308.5 L 368 304.5 L 372 284.5 L 373 257.5 L 372 254.5 L 361 241.5 L 360 231.5 L 365.5 224 L 370.5 222 Z M 375 225 L 367 228 L 363 234 L 365 242 L 375 253 L 377 259 L 377 273 L 375 281 L 375 289 L 373 293 L 372 304 L 370 308 L 369 317 L 364 336 L 352 370 L 352 373 L 343 393 L 342 398 L 335 411 L 330 425 L 326 431 Q 327 434 324 433 L 318 448 L 306 467 L 300 480 L 296 484 L 296 486 L 274 519 L 262 533 Q 263 535 260 534 L 256 543 L 258 550 L 264 559 L 281 571 L 292 571 Q 300 567 306 560 L 309 558 L 320 546 Q 319 543 322 544 L 334 528 Q 333 525 336 526 L 361 488 L 364 481 L 372 471 L 374 471 L 386 480 L 396 493 L 401 503 L 408 527 L 408 532 L 413 550 L 413 554 L 422 572 L 434 581 L 442 583 L 444 583 L 456 581 L 466 575 Q 474 568 478 558 L 482 542 L 481 521 L 475 506 L 468 497 Q 455 482 435 475 L 408 467 L 382 463 L 380 463 L 377 462 L 378 457 L 388 440 L 397 418 L 402 410 L 412 385 L 417 381 L 442 375 L 457 373 L 463 371 L 469 371 L 480 368 L 502 366 L 503 365 L 505 366 Q 516 367 524 364 Q 528 361 529 355 L 527 348 L 518 337 Q 519 334 517 335 L 515 333 L 495 315 Q 492 316 493 313 L 482 307 L 474 307 L 470 309 L 464 322 L 453 331 L 432 343 Q 428 344 427 342 L 434 320 L 435 313 L 440 302 L 447 296 L 453 286 L 455 277 Q 455 267 450 262 L 442 253 L 417 238 L 412 237 L 406 233 Q 397 232 392 228 L 375 225 Z " /><path fill="rgb(217,169,160)" stroke="rgb(217,169,160)" stroke-width="1" opacity="1" d="M 699.5 233 L 713.5 233 L 726.5 239 L 757.5 258 L 775 273.5 L 780 282.5 L 780 297.5 Q 777.9 305.4 771.5 309 L 752.5 310 L 745.5 312 L 733.5 313 L 730.5 315 L 707.5 318 L 674 325.5 L 691.5 333 L 706 345.5 L 712 358.5 L 712 366.5 L 705 373.5 L 705 381 L 741.5 375 L 756.5 362 L 764.5 359 L 769.5 359 Q 820.4 372.6 853 404.5 L 863 416.5 L 867 426.5 L 867 432.5 Q 865.3 443.8 857.5 449 L 847.5 453 L 846.5 452 L 822.5 451 L 821.5 450 L 768.5 450 L 767.5 451 L 738.5 451 L 737.5 452 L 707.5 452 L 705 453 L 705 469.5 L 706 470.5 L 706 495.5 L 707 496.5 L 707 520.5 L 708 521.5 L 708 538.5 L 709 539.5 L 709 541.5 L 711 603.5 L 712 604.5 L 712 616.5 L 713 617.5 L 713 634.5 L 714 635.5 L 715 665.5 L 716 666.5 L 718 709.5 L 719 710.5 L 719 729.5 L 720 730.5 L 720 732.5 L 720 753.5 L 721 754.5 L 720 757.5 L 721 758.5 L 721 821.5 L 720 822.5 L 720 833.5 L 719 834.5 L 718 845.5 L 713 862.5 L 703 879.5 L 698.5 884 Q 690.7 891.2 679.5 895 L 670.5 897 L 656.5 897 Q 641.2 894.3 634 883.5 L 604 838.5 L 584.5 818 L 576.5 813 L 563.5 808 L 560 804.5 L 559 796.5 L 566.5 792 L 581.5 792 L 582.5 793 L 594.5 793 L 603.5 795 L 623.5 795 L 628 793 L 630 787.5 L 630 710.5 L 630 708.5 L 629 702.5 L 630 697.5 L 629 696.5 L 629 648.5 L 628 646.5 L 629 641.5 L 628 640.5 L 628 611.5 L 627 610.5 L 627 575.5 L 626 574.5 L 625 525.5 L 624 524.5 L 624 504.5 L 623 503.5 L 623 485.5 L 622 484.5 L 622 466.5 L 621 465.5 L 621 456 L 603.5 456 L 602.5 457 L 577.5 457 L 574.5 458 L 572.5 458 L 510.5 458 L 509.5 457 L 495.5 457 L 494.5 456 L 483.5 456 L 476.5 454 L 470.5 454 L 444.5 446 Q 436.1 442.4 431 435.5 L 426 425.5 L 426 415.5 Q 427.5 409.5 436.5 411 L 446.5 418 L 459.5 418 L 460.5 417 L 469.5 417 L 484.5 414 L 520.5 410 L 527.5 408 L 534.5 408 L 541.5 406 L 548.5 406 L 562.5 403 L 569.5 403 L 575.5 401 L 616.5 396 L 618 394.5 Q 619.5 389 617 387.5 L 617 385.5 L 615 357.5 L 609.5 351 L 596.5 342 L 590.5 339 L 587.5 339 L 579.5 341 L 558.5 341 L 546.5 338 L 532 328.5 L 525 317.5 L 523 307.5 L 523 296.5 L 525 288.5 L 530.5 282 Q 534.5 279 542.5 280 Q 548.6 283.9 560.5 282 L 674.5 251 Q 685.1 246.1 691.5 237 L 699.5 233 Z M 705 236 L 697 238 L 686 246 L 685 249 Q 682 248 683 251 L 655 261 L 609 273 L 607 273 L 604 275 L 581 280 L 562 286 Q 551 287 545 284 Q 535 283 531 285 L 527 294 L 527 312 L 533 324 L 543 332 L 557 337 L 582 337 L 583 336 L 594 336 L 617 352 L 619 359 L 622 398 L 621 399 L 615 399 L 608 401 L 594 402 L 574 406 L 567 406 L 561 408 L 552 408 L 547 410 L 533 411 L 526 413 L 518 413 L 491 418 L 483 418 L 477 420 L 468 420 L 461 422 L 448 422 L 436 415 Q 430 414 429 418 L 429 424 L 434 434 L 445 442 L 469 450 L 475 450 L 482 452 L 492 452 L 493 453 L 531 454 L 532 455 L 534 454 L 584 454 L 586 454 L 588 453 L 615 453 Q 616 450 623 452 Q 625 453 624 457 L 624 459 L 625 460 L 625 472 L 626 473 L 626 486 L 626 488 L 627 491 L 626 493 Q 629 496 627 505 L 628 506 L 628 533 L 629 534 L 629 556 L 630 557 L 630 579 L 631 580 L 632 661 L 632 665 Q 630 671 633 673 L 633 731 L 634 734 L 634 789 L 632 794 L 624 799 L 607 799 L 606 798 L 587 797 L 586 796 L 577 796 L 576 795 L 566 796 L 561 800 L 562 802 L 566 805 L 575 809 L 578 809 L 585 814 Q 587 813 586 816 L 589 817 L 606 836 L 637 882 L 648 891 L 663 894 L 664 893 L 673 893 L 681 891 L 692 884 Q 695 885 694 883 L 698 880 L 706 869 L 713 852 L 717 829 L 717 813 L 717 811 L 718 809 L 718 772 L 717 771 L 716 727 L 716 725 L 715 723 L 715 711 L 714 710 L 714 686 L 713 685 L 713 675 L 712 674 L 712 663 L 711 662 L 710 626 L 709 625 L 709 614 L 708 613 L 708 601 L 707 600 L 707 577 L 707 575 L 706 574 L 706 561 L 705 560 L 705 536 L 705 534 L 704 532 L 704 517 L 704 515 L 703 512 L 703 489 L 702 488 L 702 461 L 701 460 L 702 458 L 701 451 L 703 449 L 713 449 L 717 449 L 718 448 L 737 448 L 738 447 L 765 447 L 766 446 Q 771 445 773 447 L 775 446 L 789 446 L 790 447 L 792 446 L 804 446 L 806 446 L 810 447 L 812 447 L 817 446 L 819 447 L 837 447 L 844 449 L 852 448 L 856 446 L 862 439 L 863 435 L 862 423 L 853 410 L 849 407 L 847 403 Q 844 404 845 401 L 831 390 Q 827 391 828 388 L 796 371 L 773 363 Q 757 362 752 371 L 749 373 L 746 377 Q 742 377 740 380 L 722 382 L 717 384 L 708 384 L 707 385 Q 701 386 700 384 L 702 377 L 702 372 L 704 368 L 709 365 L 707 355 L 704 349 L 693 338 L 676 330 L 668 328 L 665 326 L 666 324 L 672 321 L 688 318 L 694 318 L 698 316 L 703 316 L 721 312 L 727 312 L 731 310 L 736 310 L 742 308 L 755 307 L 756 306 L 767 306 L 769 306 L 773 304 L 777 295 L 776 283 L 771 275 L 759 263 L 741 251 L 717 238 L 710 236 L 705 236 Z " /><path fill="rgb(217,169,160)" stroke="rgb(217,169,160)" stroke-width="1" opacity="1" d="M 492.5 591 L 496.5 591 L 505 598.5 Q 515 612 520 630.5 L 521 643.5 L 522 644.5 L 522 654.5 L 521 655.5 L 520 668.5 L 513 692.5 L 496 730.5 L 475 763.5 L 452 791 L 416.5 820 L 387.5 836 L 358.5 846 L 353.5 846 L 347.5 848 L 339.5 848 L 338.5 849 L 322.5 849 L 321.5 848 L 313.5 848 L 301.5 844 Q 288.2 838.8 280 828.5 Q 275.5 824 275 815.5 L 279.5 810 L 281.5 809 L 293.5 809 L 304.5 805 L 311.5 804 L 341.5 790 Q 385.6 764.6 418 727.5 Q 444.7 698.2 466 663.5 L 484 627.5 L 487 618.5 L 487 609.5 L 485 599.5 L 489.5 592 L 492.5 591 Z M 493 595 L 489 600 Q 488 606 491 610 L 490 623 L 485 632 L 483 640 L 466 671 L 447 699 L 444 700 L 440 708 L 409 743 Q 385 767 356 786 L 329 801 L 293 813 Q 286 815 285 812 L 280 814 L 279 817 Q 278 823 282 826 L 298 838 L 306 842 L 320 845 L 342 845 Q 343 843 349 844 L 382 835 L 388 831 L 401 826 L 412 819 L 435 801 Q 437 802 436 800 L 440 797 Q 458 780 473 760 Q 472 757 475 758 L 493 729 L 504 706 L 514 679 L 516 665 L 518 660 L 518 641 L 515 627 L 509 612 L 503 602 Q 501 595 493 595 Z " /><path fill="rgb(244,176,167)" stroke="rgb(244,176,167)" stroke-width="1" opacity="1" d="M 374.5 225 L 391.5 228 Q 396.7 232.3 405.5 233 L 411.5 237 L 416.5 238 L 441.5 253 L 450 261.5 Q 454.6 266.9 455 276.5 L 453 285.5 L 447 296 L 440 301.5 L 435 312.5 L 434 319.5 L 427 341.5 Q 427.8 343.8 431.5 343 L 452.5 331 L 464 321.5 L 470 309 L 473.5 307 L 481.5 307 L 493 313 Q 491.9 315.7 494.5 315 L 515 332.5 L 516.5 335 Q 518.8 334.3 518 336.5 L 527 347.5 L 529 354.5 Q 528.1 361.1 523.5 364 Q 516.3 367.3 504.5 366 L 502.5 365 L 501.5 366 L 479.5 368 L 468.5 371 L 462.5 371 L 456.5 373 L 441.5 375 L 416.5 381 L 412 384.5 L 402 409.5 L 397 417.5 L 388 439.5 L 378 456.5 L 377 461.5 L 379.5 463 L 381.5 463 L 407.5 467 L 434.5 475 Q 455.1 481.9 468 496.5 L 475 505.5 L 481 520.5 L 482 541.5 L 478 557.5 Q 473.5 568 465.5 575 L 455.5 581 L 443.5 583 L 441.5 583 L 433.5 581 L 422 571.5 L 413 553.5 L 413 549.5 L 408 531.5 L 408 526.5 L 401 502.5 L 396 492.5 L 386 480 L 373.5 471 L 371.5 471 L 364 480.5 L 361 487.5 L 336 526 Q 333.3 524.9 334 527.5 L 322 544 Q 319.3 542.9 320 545.5 L 308.5 558 L 305.5 560 Q 299.9 566.9 291.5 571 L 280.5 571 L 264 559 L 258 549.5 L 256 542.5 L 260 534 Q 262.7 535.1 262 532.5 L 274 518.5 L 296 485.5 L 296 483.5 L 300 479.5 L 306 466.5 L 318 447.5 L 324 433 Q 327 434.3 326 430.5 L 330 424.5 L 335 410.5 L 342 397.5 L 343 392.5 L 352 372.5 L 352 369.5 L 364 335.5 L 369 316.5 L 370 307.5 L 372 303.5 L 373 292.5 L 375 288.5 L 375 280.5 L 377 272.5 L 377 258.5 L 375 252.5 L 365 241.5 L 363 233.5 L 366.5 228 L 374.5 225 Z " /><path fill="rgb(244,176,167)" stroke="rgb(244,176,167)" stroke-width="1" opacity="1" d="M 704.5 236 L 709.5 236 L 716.5 238 L 740.5 251 L 758.5 263 L 771 274.5 L 776 282.5 L 777 294.5 L 773 304 L 768.5 306 L 766.5 306 L 755.5 306 L 754.5 307 L 741.5 308 L 735.5 310 L 730.5 310 L 726.5 312 L 720.5 312 L 702.5 316 L 697.5 316 L 693.5 318 L 687.5 318 L 671.5 321 L 666 323.5 L 665 325.5 L 667.5 328 L 675.5 330 L 692.5 338 L 704 348.5 L 707 354.5 L 709 364.5 L 704 368 L 702 371.5 L 702 376.5 L 700 383.5 Q 701.3 386.3 706.5 385 L 707.5 384 L 716.5 384 L 721.5 382 L 739.5 380 Q 741.5 376.8 746 377 L 748.5 373 L 751.5 371 Q 757.2 362.2 772.5 363 L 795.5 371 L 828 388 Q 826.8 391 830.5 390 L 845 401 Q 843.9 403.7 846.5 403 L 849 407 L 853 409.5 L 862 422.5 L 863 434.5 L 862 438.5 L 855.5 446 L 851.5 448 L 843.5 449 L 836.5 447 L 818.5 447 L 816.5 446 L 811.5 447 L 809.5 447 L 805.5 446 L 803.5 446 L 791.5 446 L 789.5 447 L 788.5 446 L 774.5 446 L 772.5 447 Q 771 444.5 765.5 446 L 764.5 447 L 737.5 447 L 736.5 448 L 717.5 448 L 716.5 449 L 712.5 449 L 702.5 449 L 701 450.5 L 702 457.5 L 701 459.5 L 702 460.5 L 702 487.5 L 703 488.5 L 703 511.5 L 704 514.5 L 704 516.5 L 704 531.5 L 705 533.5 L 705 535.5 L 705 559.5 L 706 560.5 L 706 573.5 L 707 574.5 L 707 576.5 L 707 599.5 L 708 600.5 L 708 612.5 L 709 613.5 L 709 624.5 L 710 625.5 L 711 661.5 L 712 662.5 L 712 673.5 L 713 674.5 L 713 684.5 L 714 685.5 L 714 709.5 L 715 710.5 L 715 722.5 L 716 724.5 L 716 726.5 L 717 770.5 L 718 771.5 L 718 808.5 L 717 810.5 L 717 812.5 L 717 828.5 L 713 851.5 L 706 868.5 L 698 880 L 694 882.5 Q 694.8 885.1 691.5 884 L 680.5 891 L 672.5 893 L 663.5 893 L 662.5 894 L 647.5 891 L 637 881.5 L 606 835.5 L 588.5 817 L 586 815.5 Q 586.8 813.3 584.5 814 L 577.5 809 L 574.5 809 L 565.5 805 L 562 801.5 L 561 799.5 L 565.5 796 L 575.5 795 L 576.5 796 L 585.5 796 L 586.5 797 L 605.5 798 L 606.5 799 L 623.5 799 L 632 793.5 L 634 788.5 L 634 733.5 L 633 730.5 L 633 672.5 Q 630.3 670.8 632 664.5 L 632 660.5 L 631 579.5 L 630 578.5 L 630 556.5 L 629 555.5 L 629 533.5 L 628 532.5 L 628 505.5 L 627 504.5 Q 628.7 496.3 626 492.5 L 627 490.5 L 626 487.5 L 626 485.5 L 626 472.5 L 625 471.5 L 625 459.5 L 624 458.5 L 624 456.5 Q 624.8 452.8 622.5 452 Q 616.2 450.2 614.5 453 L 587.5 453 L 585.5 454 L 583.5 454 L 533.5 454 L 531.5 455 L 530.5 454 L 492.5 453 L 491.5 452 L 481.5 452 L 474.5 450 L 468.5 450 L 444.5 442 L 434 433.5 L 429 423.5 L 429 417.5 Q 430 414 435.5 415 L 447.5 422 L 460.5 422 L 467.5 420 L 476.5 420 L 482.5 418 L 490.5 418 L 517.5 413 L 525.5 413 L 532.5 411 L 546.5 410 L 551.5 408 L 560.5 408 L 566.5 406 L 573.5 406 L 593.5 402 L 607.5 401 L 614.5 399 L 620.5 399 L 622 397.5 L 619 358.5 L 616.5 352 L 593.5 336 L 582.5 336 L 581.5 337 L 556.5 337 L 542.5 332 L 533 323.5 L 527 311.5 L 527 293.5 L 531 285 Q 535.5 283 544.5 284 Q 550.6 287.4 561.5 286 L 580.5 280 L 603.5 275 L 606.5 273 L 608.5 273 L 654.5 261 L 683 251 Q 681.9 248.3 684.5 249 L 686 246 L 696.5 238 L 704.5 236 Z " /><path fill="rgb(244,176,167)" stroke="rgb(244,176,167)" stroke-width="1" opacity="1" d="M 674.5 325 L 675.5 327 L 674.5 325 Z " /><path fill="rgb(244,176,167)" stroke="rgb(244,176,167)" stroke-width="1" opacity="1" d="M 492.5 595 Q 500.6 595.4 503 601.5 L 509 611.5 L 515 626.5 L 518 640.5 L 518 659.5 L 516 664.5 L 514 678.5 L 504 705.5 L 493 728.5 L 475 758 Q 472.3 756.9 473 759.5 Q 458.5 780.5 439.5 797 L 436 799.5 Q 436.8 801.8 434.5 801 L 411.5 819 L 400.5 826 L 387.5 831 L 381.5 835 L 348.5 844 Q 343 842.5 341.5 845 L 319.5 845 L 305.5 842 L 297.5 838 L 282 825.5 Q 278.2 823.3 279 816.5 L 280 814 L 284.5 812 Q 286.3 814.8 292.5 813 L 328.5 801 L 355.5 786 Q 384.7 766.7 409 742.5 L 440 707.5 L 444 700 L 447 698.5 L 466 670.5 L 483 639.5 L 485 631.5 L 490 622.5 L 491 609.5 Q 488.3 606.2 489 599.5 L 492.5 595 Z " /><path fill="rgb(234,217,207)" stroke="rgb(234,217,207)" stroke-width="1" opacity="0.8901960784313725" d="M 371.5 221 L 382 221.5 L 371.5 222 L 371.5 221 Z " /><path fill="rgb(234,217,207)" stroke="rgb(234,217,207)" stroke-width="1" opacity="0.8901960784313725" d="M 367.5 222 L 370 222.5 Q 364.4 223.4 362 227.5 L 360.5 231 L 360 228.5 L 367.5 222 Z " /><path fill="rgb(234,217,207)" stroke="rgb(234,217,207)" stroke-width="1" opacity="0.8901960784313725" d="M 383.5 222 L 386 222.5 L 383.5 223 L 383.5 222 Z " /><path fill="rgb(234,217,207)" stroke="rgb(234,217,207)" stroke-width="1" opacity="0.8901960784313725" d="M 390.5 224 L 393.5 224 L 404 228.5 L 402.5 229 Q 398 225.5 390.5 225 L 390.5 224 Z " /><path fill="rgb(234,217,207)" stroke="rgb(234,217,207)" stroke-width="1" opacity="0.8901960784313725" d="M 410.5 231 L 414 232.5 L 412.5 233 L 410.5 231 Z " /><path fill="rgb(234,217,207)" stroke="rgb(234,217,207)" stroke-width="1" opacity="0.8901960784313725" d="M 359.5 232 L 361 241.5 L 372 254.5 L 373 257.5 L 373 274.5 L 372 274.5 L 372 257.5 L 371 254.5 L 360 241.5 L 359.5 232 Z " /><path fill="rgb(234,217,207)" stroke="rgb(234,217,207)" stroke-width="1" opacity="0.8901960784313725" d="M 700.5 232 L 713.5 232 L 718 234.5 L 716.5 235 L 713.5 233 L 700.5 233 L 700.5 232 Z " /><path fill="rgb(234,217,207)" stroke="rgb(234,217,207)" stroke-width="1" opacity="0.8901960784313725" d="M 415.5 233 L 418 234.5 L 416.5 235 L 415.5 233 Z " /><path fill="rgb(234,217,207)" stroke="rgb(234,217,207)" stroke-width="1" opacity="0.8901960784313725" d="M 696.5 233 L 699 233.5 L 691.5 237 L 678.5 249 L 665.5 253 L 665.5 252 Q 680.9 249.9 688 239.5 Q 687.3 237.3 689.5 238 L 696.5 233 Z " /><path fill="rgb(234,217,207)" stroke="rgb(234,217,207)" stroke-width="1" opacity="0.8901960784313725" d="M 419.5 235 Q 432.8 240.7 443 249.5 L 441.5 249 Q 432.5 241.5 420.5 237 L 419.5 235 Z " /><path fill="rgb(234,217,207)" stroke="rgb(234,217,207)" stroke-width="1" opacity="0.8901960784313725" d="M 719.5 235 L 735.5 243 L 757.5 257 L 776 273.5 L 779 279.5 L 778 279.5 Q 774.1 269.4 765.5 264 Q 744.7 247.8 719.5 236 L 719.5 235 Z " /><path fill="rgb(234,217,207)" stroke="rgb(234,217,207)" stroke-width="1" opacity="0.8901960784313725" d="M 444.5 250 Q 454.8 256.2 458 269.5 L 457 269.5 L 453 259.5 L 444.5 250 Z " /><path fill="rgb(234,217,207)" stroke="rgb(234,217,207)" stroke-width="1" opacity="0.8901960784313725" d="M 661.5 253 L 664 253.5 L 645.5 259 L 645.5 258 L 661.5 253 Z " /><path fill="rgb(234,217,207)" stroke="rgb(234,217,207)" stroke-width="1" opacity="0.8901960784313725" d="M 641.5 259 L 644 259.5 L 641.5 260 L 641.5 259 Z " /><path fill="rgb(234,217,207)" stroke="rgb(234,217,207)" stroke-width="1" opacity="0.8901960784313725" d="M 637.5 260 L 640 260.5 L 634.5 262 L 634.5 261 L 637.5 260 Z " /><path fill="rgb(234,217,207)" stroke="rgb(234,217,207)" stroke-width="1" opacity="0.8901960784313725" d="M 630.5 262 L 633 262.5 L 601.5 271 L 601.5 270 L 630.5 262 Z " /><path fill="rgb(234,217,207)" stroke="rgb(234,217,207)" stroke-width="1" opacity="0.8901960784313725" d="M 458.5 271 L 459 282.5 L 457.5 285 L 457 281.5 L 458 280.5 L 458.5 271 Z " /><path fill="rgb(234,217,207)" stroke="rgb(234,217,207)" stroke-width="1" opacity="0.8901960784313725" d="M 597.5 271 L 600 271.5 L 597.5 272 L 597.5 271 Z " /><path fill="rgb(234,217,207)" stroke="rgb(234,217,207)" stroke-width="1" opacity="0.8901960784313725" d="M 592.5 272 L 596 272.5 L 590.5 274 L 590.5 273 L 592.5 272 Z " /><path fill="rgb(234,217,207)" stroke="rgb(234,217,207)" stroke-width="1" opacity="0.8901960784313725" d="M 585.5 274 L 589 274.5 L 579.5 277 L 579.5 276 L 585.5 274 Z " /><path fill="rgb(234,217,207)" stroke="rgb(234,217,207)" stroke-width="1" opacity="0.8901960784313725" d="M 371.5 276 L 372 284.5 L 371 284.5 L 371.5 276 Z " /><path fill="rgb(234,217,207)" stroke="rgb(234,217,207)" stroke-width="1" opacity="0.8901960784313725" d="M 574.5 277 L 578 277.5 L 570.5 279 L 570.5 278 L 574.5 277 Z " /><path fill="rgb(234,217,207)" stroke="rgb(234,217,207)" stroke-width="1" opacity="0.8901960784313725" d="M 536.5 279 L 542.5 279 L 548.5 281 L 560.5 281 L 568.5 279 L 568.5 280 L 560.5 282 L 547.5 282 Q 543.9 279.1 536.5 280 L 536.5 279 Z " /><path fill="rgb(234,217,207)" stroke="rgb(234,217,207)" stroke-width="1" opacity="0.8901960784313725" d="M 532.5 280 L 535 280.5 Q 529.4 281.4 527 285.5 Q 523.6 289.1 523.5 296 L 523 291.5 Q 525.3 284.8 530.5 281 L 532.5 280 Z " /><path fill="rgb(234,217,207)" stroke="rgb(234,217,207)" stroke-width="1" opacity="0.8901960784313725" d="M 780.5 283 L 781 296.5 L 780 296.5 L 780.5 283 Z " /><path fill="rgb(234,217,207)" stroke="rgb(234,217,207)" stroke-width="1" opacity="0.8901960784313725" d="M 370.5 286 L 371 289.5 L 369.5 295 L 369 290.5 L 370.5 286 Z " /><path fill="rgb(234,217,207)" stroke="rgb(234,217,207)" stroke-width="1" opacity="0.8901960784313725" d="M 456.5 286 L 457 288.5 L 453 295.5 L 441.5 308 L 441 306.5 L 446 300 L 451 296.5 L 456.5 286 Z " /><path fill="rgb(234,217,207)" stroke="rgb(234,217,207)" stroke-width="1" opacity="0.8901960784313725" d="M 368.5 296 L 369 299.5 L 367.5 305 L 367 300.5 L 368.5 296 Z " /><path fill="rgb(234,217,207)" stroke="rgb(234,217,207)" stroke-width="1" opacity="0.8901960784313725" d="M 522.5 297 L 523 305.5 L 522 305.5 L 522.5 297 Z " /><path fill="rgb(234,217,207)" stroke="rgb(234,217,207)" stroke-width="1" opacity="0.8901960784313725" d="M 779.5 298 L 780 299.5 L 778.5 302 L 778 300.5 L 779.5 298 Z " /><path fill="rgb(234,217,207)" stroke="rgb(234,217,207)" stroke-width="1" opacity="0.8901960784313725" d="M 473.5 302 L 482.5 302 L 494.5 309 L 499 313.5 L 494.5 310 L 484.5 304 L 473.5 303 L 473.5 302 Z " /><path fill="rgb(234,217,207)" stroke="rgb(234,217,207)" stroke-width="1" opacity="0.8901960784313725" d="M 470.5 303 L 472 303.5 L 467 307.5 L 464.5 312 L 464 310.5 L 470.5 303 Z " /><path fill="rgb(234,217,207)" stroke="rgb(234,217,207)" stroke-width="1" opacity="0.8901960784313725" d="M 777.5 303 L 776 305.5 L 773.5 309 L 772 308.5 L 777.5 303 Z " /><path fill="rgb(234,217,207)" stroke="rgb(234,217,207)" stroke-width="1" opacity="0.8901960784313725" d="M 523.5 308 L 524 312.5 L 523 312.5 L 523.5 308 Z " /><path fill="rgb(234,217,207)" stroke="rgb(234,217,207)" stroke-width="1" opacity="0.8901960784313725" d="M 440.5 309 L 441 311.5 L 435.5 328 L 435 325.5 L 440.5 309 Z " /><path fill="rgb(234,217,207)" stroke="rgb(234,217,207)" stroke-width="1" opacity="0.8901960784313725" d="M 766.5 309 L 771 309.5 L 766.5 310 L 766.5 309 Z " /><path fill="rgb(234,217,207)" stroke="rgb(234,217,207)" stroke-width="1" opacity="0.8901960784313725" d="M 365.5 310 L 366 312.5 L 365 312.5 L 365.5 310 Z " /><path fill="rgb(234,217,207)" stroke="rgb(234,217,207)" stroke-width="1" opacity="0.8901960784313725" d="M 752.5 310 L 757 310.5 L 731.5 315 L 731.5 314 L 752.5 310 Z " /><path fill="rgb(234,217,207)" stroke="rgb(234,217,207)" stroke-width="1" opacity="0.8901960784313725" d="M 364.5 314 L 365 317.5 L 363.5 322 L 363 318.5 L 364.5 314 Z " /><path fill="rgb(234,217,207)" stroke="rgb(234,217,207)" stroke-width="1" opacity="0.8901960784313725" d="M 500.5 314 L 522 333.5 Q 528.8 339.7 532 349.5 L 531 349.5 L 526 339.5 L 515.5 328 Q 505.9 321.8 500.5 314 Z " /><path fill="rgb(234,217,207)" stroke="rgb(234,217,207)" stroke-width="1" opacity="0.8901960784313725" d="M 524.5 314 Q 526.7 324.3 533.5 330 Q 540.9 336.6 552 339.5 L 549.5 340 Q 537.5 336 530 327.5 L 524 317.5 L 524.5 314 Z " /><path fill="rgb(234,217,207)" stroke="rgb(234,217,207)" stroke-width="1" opacity="0.8901960784313725" d="M 462.5 315 L 462 316.5 L 457.5 323 L 444.5 331 L 446.5 328 L 459 320.5 L 462.5 315 Z " /><path fill="rgb(234,217,207)" stroke="rgb(234,217,207)" stroke-width="1" opacity="0.8901960784313725" d="M 725.5 315 L 729 315.5 L 725.5 316 L 725.5 315 Z " /><path fill="rgb(234,217,207)" stroke="rgb(234,217,207)" stroke-width="1" opacity="0.8901960784313725" d="M 718.5 316 L 723 316.5 L 707.5 319 L 707.5 318 L 712.5 318 L 718.5 316 Z " /><path fill="rgb(234,217,207)" stroke="rgb(234,217,207)" stroke-width="1" opacity="0.8901960784313725" d="M 702.5 319 L 706 319.5 L 702.5 320 L 702.5 319 Z " /><path fill="rgb(234,217,207)" stroke="rgb(234,217,207)" stroke-width="1" opacity="0.8901960784313725" d="M 697.5 320 L 701 320.5 L 697.5 321 L 697.5 320 Z " /><path fill="rgb(234,217,207)" stroke="rgb(234,217,207)" stroke-width="1" opacity="0.8901960784313725" d="M 691.5 321 L 695 321.5 L 691.5 322 L 691.5 321 Z " /><path fill="rgb(234,217,207)" stroke="rgb(234,217,207)" stroke-width="1" opacity="0.8901960784313725" d="M 686.5 322 L 690 322.5 L 686.5 323 L 686.5 322 Z " /><path fill="rgb(234,217,207)" stroke="rgb(234,217,207)" stroke-width="1" opacity="0.8901960784313725" d="M 362.5 323 L 363 325.5 L 362 325.5 L 362.5 323 Z " /><path fill="rgb(234,217,207)" stroke="rgb(234,217,207)" stroke-width="1" opacity="0.8901960784313725" d="M 681.5 323 L 685 323.5 L 681.5 324 L 681.5 323 Z " /><path fill="rgb(234,217,207)" stroke="rgb(234,217,207)" stroke-width="1" opacity="0.8901960784313725" d="M 677.5 324 L 680 324.5 L 677 325.5 L 677.5 327 L 675 325.5 L 677.5 324 Z " /><path fill="rgb(234,217,207)" stroke="rgb(234,217,207)" stroke-width="1" opacity="0.8901960784313725" d="M 679.5 327 L 685 329.5 L 683.5 330 L 679.5 328 L 679.5 327 Z " /><path fill="rgb(234,217,207)" stroke="rgb(234,217,207)" stroke-width="1" opacity="0.8901960784313725" d="M 434.5 329 L 435 331.5 L 434 335.5 L 435.5 335 L 442.5 331 L 441.5 333 L 433.5 338 L 432 335.5 L 434.5 329 Z " /><path fill="rgb(234,217,207)" stroke="rgb(234,217,207)" stroke-width="1" opacity="0.8901960784313725" d="M 360.5 330 L 361 332.5 L 360 332.5 L 360.5 330 Z " /><path fill="rgb(234,217,207)" stroke="rgb(234,217,207)" stroke-width="1" opacity="0.8901960784313725" d="M 686.5 330 L 697.5 336 L 706 343 L 708 347.5 L 706 346.5 L 698.5 338 L 686.5 331 L 686.5 330 Z " /><path fill="rgb(234,217,207)" stroke="rgb(234,217,207)" stroke-width="1" opacity="0.8901960784313725" d="M 359.5 334 L 360 336.5 L 357.5 343 L 357 340.5 L 359.5 334 Z " /><path fill="rgb(234,217,207)" stroke="rgb(234,217,207)" stroke-width="1" opacity="0.8901960784313725" d="M 588.5 339 Q 595.6 339.9 599 344.5 L 597.5 344 L 589.5 340 L 588.5 341 L 580.5 341 L 580.5 340 Q 586.8 341.8 588.5 339 Z " /><path fill="rgb(234,217,207)" stroke="rgb(234,217,207)" stroke-width="1" opacity="0.8901960784313725" d="M 553.5 340 L 558 340.5 L 553.5 341 L 553.5 340 Z " /><path fill="rgb(234,217,207)" stroke="rgb(234,217,207)" stroke-width="1" opacity="0.8901960784313725" d="M 559.5 341 L 579 341.5 L 559.5 342 L 559.5 341 Z " /><path fill="rgb(234,217,207)" stroke="rgb(234,217,207)" stroke-width="1" opacity="0.8901960784313725" d="M 356.5 344 L 357 345.5 L 354.5 351 L 354 349.5 L 356.5 344 Z " /><path fill="rgb(234,217,207)" stroke="rgb(234,217,207)" stroke-width="1" opacity="0.8901960784313725" d="M 600.5 345 L 609 351.5 L 606.5 350 Q 601.5 348.5 600.5 345 Z " /><path fill="rgb(234,217,207)" stroke="rgb(234,217,207)" stroke-width="1" opacity="0.8901960784313725" d="M 708.5 349 L 711 354.5 L 710 354.5 L 708.5 349 Z " /><path fill="rgb(234,217,207)" stroke="rgb(234,217,207)" stroke-width="1" opacity="0.8901960784313725" d="M 532.5 351 L 533 356.5 Q 531.9 363.9 526.5 367 L 521.5 369 L 521.5 368 L 523.5 368 L 530 362.5 L 532.5 351 Z " /><path fill="rgb(234,217,207)" stroke="rgb(234,217,207)" stroke-width="1" opacity="0.8901960784313725" d="M 353.5 352 L 354 354.5 L 353 354.5 L 353.5 352 Z " /><path fill="rgb(234,217,207)" stroke="rgb(234,217,207)" stroke-width="1" opacity="0.8901960784313725" d="M 610.5 352 Q 615.9 353.6 615 361.5 L 614 361.5 L 614 358.5 L 610 353.5 L 610.5 352 Z " /><path fill="rgb(234,217,207)" stroke="rgb(234,217,207)" stroke-width="1" opacity="0.8901960784313725" d="M 712.5 359 L 713 366.5 L 706 372.5 L 712 366.5 L 712.5 359 Z " /><path fill="rgb(234,217,207)" stroke="rgb(234,217,207)" stroke-width="1" opacity="0.8901960784313725" d="M 761.5 359 L 764 359.5 L 761.5 360 L 761.5 359 Z " /><path fill="rgb(234,217,207)" stroke="rgb(234,217,207)" stroke-width="1" opacity="0.8901960784313725" d="M 770.5 359 Q 775.9 358.1 778 360.5 L 776.5 361 Q 775.3 358.7 770.5 360 L 770.5 359 Z " /><path fill="rgb(234,217,207)" stroke="rgb(234,217,207)" stroke-width="1" opacity="0.8901960784313725" d="M 758.5 360 L 760 360.5 L 757.5 362 L 758.5 360 Z " /><path fill="rgb(234,217,207)" stroke="rgb(234,217,207)" stroke-width="1" opacity="0.8901960784313725" d="M 780.5 361 L 785 362.5 L 783.5 363 L 780.5 362 L 780.5 361 Z " /><path fill="rgb(234,217,207)" stroke="rgb(234,217,207)" stroke-width="1" opacity="0.8901960784313725" d="M 755.5 362 L 754.5 364 Q 746 367.5 741.5 375 L 739.5 375 L 739.5 374 L 741.5 374 L 755.5 362 Z " /><path fill="rgb(234,217,207)" stroke="rgb(234,217,207)" stroke-width="1" opacity="0.8901960784313725" d="M 786.5 363 L 797 367.5 L 795.5 368 L 786.5 364 L 786.5 363 Z " /><path fill="rgb(234,217,207)" stroke="rgb(234,217,207)" stroke-width="1" opacity="0.8901960784313725" d="M 349.5 365 L 350 366.5 L 348.5 369 L 348 367.5 L 349.5 365 Z " /><path fill="rgb(234,217,207)" stroke="rgb(234,217,207)" stroke-width="1" opacity="0.8901960784313725" d="M 615.5 366 L 616 371.5 L 615 371.5 L 615.5 366 Z " /><path fill="rgb(234,217,207)" stroke="rgb(234,217,207)" stroke-width="1" opacity="0.8901960784313725" d="M 798.5 368 L 822 380.5 L 820.5 380 L 798.5 369 L 798.5 368 Z " /><path fill="rgb(234,217,207)" stroke="rgb(234,217,207)" stroke-width="1" opacity="0.8901960784313725" d="M 508.5 369 L 519 369.5 L 509.5 370 L 508.5 371 L 494.5 371 L 494.5 370 L 507.5 370 L 508.5 369 Z " /><path fill="rgb(234,217,207)" stroke="rgb(234,217,207)" stroke-width="1" opacity="0.8901960784313725" d="M 486.5 371 L 493 371.5 L 486.5 372 L 486.5 371 Z " /><path fill="rgb(234,217,207)" stroke="rgb(234,217,207)" stroke-width="1" opacity="0.8901960784313725" d="M 479.5 372 L 484 372.5 L 479.5 373 L 479.5 372 Z " /><path fill="rgb(234,217,207)" stroke="rgb(234,217,207)" stroke-width="1" opacity="0.8901960784313725" d="M 346.5 373 L 347 374.5 L 344.5 380 L 344 378.5 L 346.5 373 Z " /><path fill="rgb(234,217,207)" stroke="rgb(234,217,207)" stroke-width="1" opacity="0.8901960784313725" d="M 471.5 373 L 478 373.5 L 467.5 375 L 467.5 374 L 471.5 373 Z " /><path fill="rgb(234,217,207)" stroke="rgb(234,217,207)" stroke-width="1" opacity="0.8901960784313725" d="M 705.5 374 L 706 380 L 710 380.5 L 705 381 L 705.5 374 Z " /><path fill="rgb(234,217,207)" stroke="rgb(234,217,207)" stroke-width="1" opacity="0.8901960784313725" d="M 461.5 375 L 465 375.5 L 451.5 378 L 451.5 377 L 461.5 375 Z " /><path fill="rgb(234,217,207)" stroke="rgb(234,217,207)" stroke-width="1" opacity="0.8901960784313725" d="M 734.5 375 L 738 375.5 L 723.5 378 L 723.5 377 L 734.5 375 Z " /><path fill="rgb(234,217,207)" stroke="rgb(234,217,207)" stroke-width="1" opacity="0.8901960784313725" d="M 616.5 376 L 617 384.5 L 616 384.5 L 616.5 376 Z " /><path fill="rgb(234,217,207)" stroke="rgb(234,217,207)" stroke-width="1" opacity="0.8901960784313725" d="M 446.5 378 L 449 378.5 L 446.5 379 L 446.5 378 Z " /><path fill="rgb(234,217,207)" stroke="rgb(234,217,207)" stroke-width="1" opacity="0.8901960784313725" d="M 717.5 378 L 722 378.5 L 717.5 379 L 717.5 378 Z " /><path fill="rgb(234,217,207)" stroke="rgb(234,217,207)" stroke-width="1" opacity="0.8901960784313725" d="M 441.5 379 L 445 379.5 L 441.5 380 L 441.5 379 Z " /><path fill="rgb(234,217,207)" stroke="rgb(234,217,207)" stroke-width="1" opacity="0.8901960784313725" d="M 711.5 379 L 716 379.5 L 711.5 380 L 711.5 379 Z " /><path fill="rgb(234,217,207)" stroke="rgb(234,217,207)" stroke-width="1" opacity="0.8901960784313725" d="M 437.5 380 L 440 380.5 L 437.5 381 L 437.5 380 Z " /><path fill="rgb(234,217,207)" stroke="rgb(234,217,207)" stroke-width="1" opacity="0.8901960784313725" d="M 343.5 381 L 344 382.5 L 342.5 385 L 342 383.5 L 343.5 381 Z " /><path fill="rgb(234,217,207)" stroke="rgb(234,217,207)" stroke-width="1" opacity="0.8901960784313725" d="M 432.5 381 L 436 381.5 L 428.5 383 L 428.5 382 L 432.5 381 Z " /><path fill="rgb(234,217,207)" stroke="rgb(234,217,207)" stroke-width="1" opacity="0.8901960784313725" d="M 823.5 381 L 830 385.5 L 828.5 385 Q 823.9 383.8 823.5 381 Z " /><path fill="rgb(234,217,207)" stroke="rgb(234,217,207)" stroke-width="1" opacity="0.8901960784313725" d="M 423.5 383 L 427 383.5 L 418.5 385 L 415 388.5 L 413.5 393 L 413 391.5 L 416.5 385 L 423.5 383 Z " /><path fill="rgb(234,217,207)" stroke="rgb(234,217,207)" stroke-width="1" opacity="0.8901960784313725" d="M 341.5 386 L 342 387.5 L 340.5 390 L 340 388.5 L 341.5 386 Z " /><path fill="rgb(234,217,207)" stroke="rgb(234,217,207)" stroke-width="1" opacity="0.8901960784313725" d="M 831.5 386 L 833.5 389 L 831.5 386 Z " /><path fill="rgb(234,217,207)" stroke="rgb(234,217,207)" stroke-width="1" opacity="0.8901960784313725" d="M 617.5 388 L 618 394.5 L 616.5 396 L 597.5 398 L 597.5 397 L 615.5 395 L 617 393.5 L 617.5 388 Z " /><path fill="rgb(234,217,207)" stroke="rgb(234,217,207)" stroke-width="1" opacity="0.8901960784313725" d="M 835.5 389 L 858 408.5 Q 864 413.5 866 422.5 L 865 422.5 L 861 413.5 L 849.5 401 L 837.5 392 L 835.5 389 Z " /><path fill="rgb(234,217,207)" stroke="rgb(234,217,207)" stroke-width="1" opacity="0.8901960784313725" d="M 339.5 391 L 340 392.5 L 332.5 408 L 332 406.5 L 339.5 391 Z " /><path fill="rgb(234,217,207)" stroke="rgb(234,217,207)" stroke-width="1" opacity="0.8901960784313725" d="M 412.5 394 L 413 395.5 L 410.5 400 L 410 398.5 L 412.5 394 Z " /><path fill="rgb(234,217,207)" stroke="rgb(234,217,207)" stroke-width="1" opacity="0.8901960784313725" d="M 589.5 398 L 596 398.5 L 583.5 400 L 583.5 399 Q 588.2 400.2 589.5 398 Z " /><path fill="rgb(234,217,207)" stroke="rgb(234,217,207)" stroke-width="1" opacity="0.8901960784313725" d="M 577.5 400 L 582 400.5 L 577.5 401 L 577.5 400 Z " /><path fill="rgb(234,217,207)" stroke="rgb(234,217,207)" stroke-width="1" opacity="0.8901960784313725" d="M 409.5 401 L 410 402.5 L 402.5 417 L 403 415.5 L 409.5 401 Z " /><path fill="rgb(234,217,207)" stroke="rgb(234,217,207)" stroke-width="1" opacity="0.8901960784313725" d="M 571.5 401 L 575 401.5 L 571.5 402 L 571.5 401 Z " /><path fill="rgb(234,217,207)" stroke="rgb(234,217,207)" stroke-width="1" opacity="0.8901960784313725" d="M 563.5 402 L 570 402.5 L 563.5 403 L 563.5 402 Z " /><path fill="rgb(234,217,207)" stroke="rgb(234,217,207)" stroke-width="1" opacity="0.8901960784313725" d="M 556.5 403 L 562 403.5 L 556.5 404 L 556.5 403 Z " /><path fill="rgb(234,217,207)" stroke="rgb(234,217,207)" stroke-width="1" opacity="0.8901960784313725" d="M 551.5 404 L 555 404.5 L 551.5 405 L 551.5 404 Z " /><path fill="rgb(234,217,207)" stroke="rgb(234,217,207)" stroke-width="1" opacity="0.8901960784313725" d="M 543.5 405 L 549 405.5 L 543.5 406 L 543.5 405 Z " /><path fill="rgb(234,217,207)" stroke="rgb(234,217,207)" stroke-width="1" opacity="0.8901960784313725" d="M 535.5 406 L 541 406.5 L 528.5 408 L 528.5 407 Q 534 408.5 535.5 406 Z " /><path fill="rgb(234,217,207)" stroke="rgb(234,217,207)" stroke-width="1" opacity="0.8901960784313725" d="M 521.5 408 L 527 408.5 L 507.5 411 L 507.5 410 L 513.5 410 L 521.5 408 Z " /><path fill="rgb(234,217,207)" stroke="rgb(234,217,207)" stroke-width="1" opacity="0.8901960784313725" d="M 430.5 410 L 436.5 410 L 446.5 417 L 458.5 417 L 459.5 416 L 469.5 416 L 469.5 417 L 446.5 418 L 436.5 411 L 430.5 411 L 426 414.5 L 430.5 410 Z " /><path fill="rgb(234,217,207)" stroke="rgb(234,217,207)" stroke-width="1" opacity="0.8901960784313725" d="M 330.5 411 L 331 412.5 L 325.5 423 L 325 421.5 L 330.5 411 Z " /><path fill="rgb(234,217,207)" stroke="rgb(234,217,207)" stroke-width="1" opacity="0.8901960784313725" d="M 500.5 411 L 506 411.5 L 500.5 412 L 500.5 411 Z " /><path fill="rgb(234,217,207)" stroke="rgb(234,217,207)" stroke-width="1" opacity="0.8901960784313725" d="M 493.5 412 L 499 412.5 L 493.5 413 L 493.5 412 Z " /><path fill="rgb(234,217,207)" stroke="rgb(234,217,207)" stroke-width="1" opacity="0.8901960784313725" d="M 485.5 413 L 492 413.5 L 485.5 414 L 485.5 413 Z " /><path fill="rgb(234,217,207)" stroke="rgb(234,217,207)" stroke-width="1" opacity="0.8901960784313725" d="M 479.5 414 L 484 414.5 L 479.5 415 L 479.5 414 Z " /><path fill="rgb(234,217,207)" stroke="rgb(234,217,207)" stroke-width="1" opacity="0.8901960784313725" d="M 471.5 415 L 477 415.5 L 471.5 416 L 471.5 415 Z " /><path fill="rgb(234,217,207)" stroke="rgb(234,217,207)" stroke-width="1" opacity="0.8901960784313725" d="M 425.5 416 L 426 424.5 L 425 424.5 L 425.5 416 Z " /><path fill="rgb(234,217,207)" stroke="rgb(234,217,207)" stroke-width="1" opacity="0.8901960784313725" d="M 401.5 418 L 402 419.5 L 400.5 422 L 400 420.5 L 401.5 418 Z " /><path fill="rgb(234,217,207)" stroke="rgb(234,217,207)" stroke-width="1" opacity="0.8901960784313725" d="M 399.5 423 L 400 424.5 L 398 425.5 L 399.5 423 Z " /><path fill="rgb(234,217,207)" stroke="rgb(234,217,207)" stroke-width="1" opacity="0.8901960784313725" d="M 324.5 424 L 325 425.5 L 302 468.5 L 287.5 491 L 288 489.5 Q 308.1 458.6 324.5 424 Z " /><path fill="rgb(234,217,207)" stroke="rgb(234,217,207)" stroke-width="1" opacity="0.8901960784313725" d="M 396.5 429 L 397 430.5 L 385.5 452 L 386 450.5 L 396.5 429 Z " /><path fill="rgb(234,217,207)" stroke="rgb(234,217,207)" stroke-width="1" opacity="0.8901960784313725" d="M 427.5 429 L 429 431.5 L 427 430.5 L 427.5 429 Z " /><path fill="rgb(234,217,207)" stroke="rgb(234,217,207)" stroke-width="1" opacity="0.8901960784313725" d="M 429.5 433 L 437.5 442 L 440 443.5 L 438.5 443 L 430 435.5 L 429.5 433 Z " /><path fill="rgb(234,217,207)" stroke="rgb(234,217,207)" stroke-width="1" opacity="0.8901960784313725" d="M 866.5 433 L 867 436.5 L 866 436.5 L 866.5 433 Z " /><path fill="rgb(234,217,207)" stroke="rgb(234,217,207)" stroke-width="1" opacity="0.8901960784313725" d="M 865.5 438 L 866 439.5 L 859.5 449 L 847.5 454 L 839 452.5 L 846.5 452 L 848.5 452 Q 858.6 450.6 863 443.5 L 865.5 438 Z " /><path fill="rgb(234,217,207)" stroke="rgb(234,217,207)" stroke-width="1" opacity="0.8901960784313725" d="M 441.5 444 L 454 449.5 L 452.5 450 L 442.5 446 L 441.5 444 Z " /><path fill="rgb(234,217,207)" stroke="rgb(234,217,207)" stroke-width="1" opacity="0.8901960784313725" d="M 455.5 450 L 464.5 453 L 477 454.5 L 470.5 455 L 455.5 451 L 455.5 450 Z " /><path fill="rgb(234,217,207)" stroke="rgb(234,217,207)" stroke-width="1" opacity="0.8901960784313725" d="M 768.5 450 L 822 450.5 L 768.5 451 L 768.5 450 Z " /><path fill="rgb(234,217,207)" stroke="rgb(234,217,207)" stroke-width="1" opacity="0.8901960784313725" d="M 738.5 451 L 757 451.5 L 738.5 452 L 738.5 451 Z " /><path fill="rgb(234,217,207)" stroke="rgb(234,217,207)" stroke-width="1" opacity="0.8901960784313725" d="M 823.5 451 L 838 451.5 L 823.5 452 L 823.5 451 Z " /><path fill="rgb(234,217,207)" stroke="rgb(234,217,207)" stroke-width="1" opacity="0.8901960784313725" d="M 708.5 452 L 731 452.5 L 710.5 454 L 708.5 454 L 706 455.5 L 705.5 470 L 705 454.5 L 708.5 452 Z " /><path fill="rgb(234,217,207)" stroke="rgb(234,217,207)" stroke-width="1" opacity="0.8901960784313725" d="M 384.5 453 L 385 454.5 L 383 455.5 L 384.5 453 Z " /><path fill="rgb(234,217,207)" stroke="rgb(234,217,207)" stroke-width="1" opacity="0.8901960784313725" d="M 479.5 455 L 483 455.5 L 479.5 456 L 479.5 455 Z " /><path fill="rgb(234,217,207)" stroke="rgb(234,217,207)" stroke-width="1" opacity="0.8901960784313725" d="M 484.5 456 L 510 457.5 L 494.5 458 L 493.5 457 L 484.5 457 L 484.5 456 Z " /><path fill="rgb(234,217,207)" stroke="rgb(234,217,207)" stroke-width="1" opacity="0.8901960784313725" d="M 603.5 456 L 620.5 456 L 621 458.5 L 620 458.5 L 619.5 457 L 604.5 457 L 603.5 458 L 577.5 458 L 577.5 457 L 602.5 457 L 603.5 456 Z " /><path fill="rgb(234,217,207)" stroke="rgb(234,217,207)" stroke-width="1" opacity="0.8901960784313725" d="M 382.5 457 Q 383.9 460 389 459.5 L 384.5 460 L 382.5 457 Z " /><path fill="rgb(234,217,207)" stroke="rgb(234,217,207)" stroke-width="1" opacity="0.8901960784313725" d="M 513.5 458 L 567 458.5 L 513.5 459 L 513.5 458 Z " /><path fill="rgb(234,217,207)" stroke="rgb(234,217,207)" stroke-width="1" opacity="0.8901960784313725" d="M 390.5 460 L 402 461.5 L 397.5 462 Q 396 459.5 390.5 461 L 390.5 460 Z " /><path fill="rgb(234,217,207)" stroke="rgb(234,217,207)" stroke-width="1" opacity="0.8901960784313725" d="M 403.5 462 L 419.5 465 L 422 466.5 L 419.5 467 L 403.5 463 L 403.5 462 Z " /><path fill="rgb(234,217,207)" stroke="rgb(234,217,207)" stroke-width="1" opacity="0.8901960784313725" d="M 621.5 466 L 622 478.5 L 621 478.5 L 621.5 466 Z " /><path fill="rgb(234,217,207)" stroke="rgb(234,217,207)" stroke-width="1" opacity="0.8901960784313725" d="M 426.5 468 L 434 470.5 L 432.5 471 L 426.5 469 L 426.5 468 Z " /><path fill="rgb(234,217,207)" stroke="rgb(234,217,207)" stroke-width="1" opacity="0.8901960784313725" d="M 435.5 471 L 444 474.5 L 442.5 475 L 435.5 472 L 435.5 471 Z " /><path fill="rgb(234,217,207)" stroke="rgb(234,217,207)" stroke-width="1" opacity="0.8901960784313725" d="M 706.5 474 L 707 495.5 L 706 495.5 L 706.5 474 Z " /><path fill="rgb(234,217,207)" stroke="rgb(234,217,207)" stroke-width="1" opacity="0.8901960784313725" d="M 445.5 475 L 448 476.5 L 446.5 476 L 445.5 475 Z " /><path fill="rgb(234,217,207)" stroke="rgb(234,217,207)" stroke-width="1" opacity="0.8901960784313725" d="M 372.5 476 L 374 476.5 L 370 479.5 Q 344 528.5 306.5 566 L 291.5 576 L 282.5 576 L 282.5 575 L 293.5 574 Q 307 566 317 554.5 L 345 518.5 L 367 482.5 L 372.5 476 Z " /><path fill="rgb(234,217,207)" stroke="rgb(234,217,207)" stroke-width="1" opacity="0.8901960784313725" d="M 375.5 477 L 389 489.5 L 379.5 481 L 375.5 477 Z " /><path fill="rgb(234,217,207)" stroke="rgb(234,217,207)" stroke-width="1" opacity="0.8901960784313725" d="M 449.5 477 Q 465.3 484.2 475 497.5 L 476 499.5 L 474 498.5 L 461.5 485 L 450.5 479 L 449.5 477 Z " /><path fill="rgb(234,217,207)" stroke="rgb(234,217,207)" stroke-width="1" opacity="0.8901960784313725" d="M 622.5 485 L 623 499.5 L 622 499.5 L 622.5 485 Z " /><path fill="rgb(234,217,207)" stroke="rgb(234,217,207)" stroke-width="1" opacity="0.8901960784313725" d="M 389.5 491 Q 394.8 495.8 397 503.5 L 396 503.5 L 389.5 491 Z " /><path fill="rgb(234,217,207)" stroke="rgb(234,217,207)" stroke-width="1" opacity="0.8901960784313725" d="M 286.5 492 L 285 494.5 L 283.5 497 L 284 495.5 L 286.5 492 Z " /><path fill="rgb(234,217,207)" stroke="rgb(234,217,207)" stroke-width="1" opacity="0.8901960784313725" d="M 282.5 498 L 281.5 500 L 282.5 498 Z " /><path fill="rgb(234,217,207)" stroke="rgb(234,217,207)" stroke-width="1" opacity="0.8901960784313725" d="M 280.5 501 L 279 503.5 L 264.5 524 L 267 520.5 L 280.5 501 Z " /><path fill="rgb(234,217,207)" stroke="rgb(234,217,207)" stroke-width="1" opacity="0.8901960784313725" d="M 476.5 501 L 479 504.5 L 477 503.5 L 476.5 501 Z " /><path fill="rgb(234,217,207)" stroke="rgb(234,217,207)" stroke-width="1" opacity="0.8901960784313725" d="M 707.5 502 L 708 520.5 L 707 520.5 L 707.5 502 Z " /><path fill="rgb(234,217,207)" stroke="rgb(234,217,207)" stroke-width="1" opacity="0.8901960784313725" d="M 623.5 504 L 624 520.5 L 623 520.5 L 623.5 504 Z " /><path fill="rgb(234,217,207)" stroke="rgb(234,217,207)" stroke-width="1" opacity="0.8901960784313725" d="M 397.5 505 L 399 509.5 L 398 509.5 L 397.5 505 Z " /><path fill="rgb(234,217,207)" stroke="rgb(234,217,207)" stroke-width="1" opacity="0.8901960784313725" d="M 481.5 510 L 484 516.5 L 483 516.5 L 481.5 510 Z " /><path fill="rgb(234,217,207)" stroke="rgb(234,217,207)" stroke-width="1" opacity="0.8901960784313725" d="M 399.5 511 L 404 525.5 L 405 534.5 L 404 534.5 L 403 525.5 L 399 513.5 L 399.5 511 Z " /><path fill="rgb(234,217,207)" stroke="rgb(234,217,207)" stroke-width="1" opacity="0.8901960784313725" d="M 484.5 518 L 485 521.5 L 484 521.5 L 484.5 518 Z " /><path fill="rgb(234,217,207)" stroke="rgb(234,217,207)" stroke-width="1" opacity="0.8901960784313725" d="M 485.5 523 L 486 527.5 L 485 527.5 L 485.5 523 Z " /><path fill="rgb(234,217,207)" stroke="rgb(234,217,207)" stroke-width="1" opacity="0.8901960784313725" d="M 263.5 525 L 258.5 531 L 263.5 525 Z " /><path fill="rgb(234,217,207)" stroke="rgb(234,217,207)" stroke-width="1" opacity="0.8901960784313725" d="M 624.5 525 L 625 544.5 L 624 544.5 L 624.5 525 Z " /><path fill="rgb(234,217,207)" stroke="rgb(234,217,207)" stroke-width="1" opacity="0.8901960784313725" d="M 708.5 527 L 709 538.5 L 708 538.5 L 708.5 527 Z " /><path fill="rgb(234,217,207)" stroke="rgb(234,217,207)" stroke-width="1" opacity="0.8901960784313725" d="M 485.5 529 L 487 535.5 L 486 535.5 L 485.5 529 Z " /><path fill="rgb(234,217,207)" stroke="rgb(234,217,207)" stroke-width="1" opacity="0.8901960784313725" d="M 257.5 532 L 256 534.5 L 253.5 539 L 253 537.5 L 257.5 532 Z " /><path fill="rgb(234,217,207)" stroke="rgb(234,217,207)" stroke-width="1" opacity="0.8901960784313725" d="M 405.5 536 L 406 539.5 L 405 539.5 L 405.5 536 Z " /><path fill="rgb(234,217,207)" stroke="rgb(234,217,207)" stroke-width="1" opacity="0.8901960784313725" d="M 485.5 537 L 486 545.5 L 485 545.5 L 485.5 537 Z " /><path fill="rgb(234,217,207)" stroke="rgb(234,217,207)" stroke-width="1" opacity="0.8901960784313725" d="M 252.5 540 L 253 546.5 L 252 546.5 L 252.5 540 Z " /><path fill="rgb(234,217,207)" stroke="rgb(234,217,207)" stroke-width="1" opacity="0.8901960784313725" d="M 407.5 544 L 408 546.5 L 407 546.5 L 407.5 544 Z " /><path fill="rgb(234,217,207)" stroke="rgb(234,217,207)" stroke-width="1" opacity="0.8901960784313725" d="M 484.5 547 L 485 550.5 L 483.5 554 L 483 551.5 L 484.5 547 Z " /><path fill="rgb(234,217,207)" stroke="rgb(234,217,207)" stroke-width="1" opacity="0.8901960784313725" d="M 408.5 548 L 409 550.5 L 408 550.5 L 408.5 548 Z " /><path fill="rgb(234,217,207)" stroke="rgb(234,217,207)" stroke-width="1" opacity="0.8901960784313725" d="M 625.5 548 L 626 568.5 L 625 568.5 L 625.5 548 Z " /><path fill="rgb(234,217,207)" stroke="rgb(234,217,207)" stroke-width="1" opacity="0.8901960784313725" d="M 709.5 549 L 710 563.5 L 709 563.5 L 709.5 549 Z " /><path fill="rgb(234,217,207)" stroke="rgb(234,217,207)" stroke-width="1" opacity="0.8901960784313725" d="M 254.5 550 L 257 554.5 L 255 553.5 L 254.5 550 Z " /><path fill="rgb(234,217,207)" stroke="rgb(234,217,207)" stroke-width="1" opacity="0.8901960784313725" d="M 410.5 555 L 411 557.5 L 410 557.5 L 410.5 555 Z " /><path fill="rgb(234,217,207)" stroke="rgb(234,217,207)" stroke-width="1" opacity="0.8901960784313725" d="M 482.5 555 L 483 556.5 L 481.5 559 L 481 557.5 L 482.5 555 Z " /><path fill="rgb(234,217,207)" stroke="rgb(234,217,207)" stroke-width="1" opacity="0.8901960784313725" d="M 257.5 556 L 264.5 564 L 275 571.5 L 273.5 572 L 260 560.5 L 257.5 556 Z " /><path fill="rgb(234,217,207)" stroke="rgb(234,217,207)" stroke-width="1" opacity="0.8901960784313725" d="M 411.5 559 L 413 562.5 L 412 562.5 L 411.5 559 Z " /><path fill="rgb(234,217,207)" stroke="rgb(234,217,207)" stroke-width="1" opacity="0.8901960784313725" d="M 413.5 564 Q 418.4 574.6 427 581.5 L 425.5 581 L 423 579.5 Q 415.8 572.9 413.5 564 Z " /><path fill="rgb(234,217,207)" stroke="rgb(234,217,207)" stroke-width="1" opacity="0.8901960784313725" d="M 478.5 564 L 478 565.5 L 474.5 571 L 476 568.5 L 478.5 564 Z " /><path fill="rgb(234,217,207)" stroke="rgb(234,217,207)" stroke-width="1" opacity="0.8901960784313725" d="M 710.5 570 L 711 583.5 L 710 583.5 L 710.5 570 Z " /><path fill="rgb(234,217,207)" stroke="rgb(234,217,207)" stroke-width="1" opacity="0.8901960784313725" d="M 276.5 572 L 280 574.5 L 278.5 575 L 276.5 572 Z " /><path fill="rgb(234,217,207)" stroke="rgb(234,217,207)" stroke-width="1" opacity="0.8901960784313725" d="M 473.5 572 L 465.5 581 L 453.5 586 L 453.5 585 Q 466.6 581.6 473.5 572 Z " /><path fill="rgb(234,217,207)" stroke="rgb(234,217,207)" stroke-width="1" opacity="0.8901960784313725" d="M 626.5 575 L 627 600.5 L 626 600.5 L 626.5 575 Z " /><path fill="rgb(234,217,207)" stroke="rgb(234,217,207)" stroke-width="1" opacity="0.8901960784313725" d="M 428.5 582 L 437 585.5 L 434.5 586 L 429.5 584 L 428.5 582 Z " /><path fill="rgb(234,217,207)" stroke="rgb(234,217,207)" stroke-width="1" opacity="0.8901960784313725" d="M 439.5 586 L 446 586.5 L 439.5 587 L 439.5 586 Z " /><path fill="rgb(234,217,207)" stroke="rgb(234,217,207)" stroke-width="1" opacity="0.8901960784313725" d="M 448.5 586 L 452 586.5 L 448.5 587 L 448.5 586 Z " /><path fill="rgb(234,217,207)" stroke="rgb(234,217,207)" stroke-width="1" opacity="0.8901960784313725" d="M 711.5 588 L 712 603.5 L 711 603.5 L 711.5 588 Z " /><path fill="rgb(234,217,207)" stroke="rgb(234,217,207)" stroke-width="1" opacity="0.8901960784313725" d="M 492.5 590 L 496 590.5 L 490.5 592 L 490.5 591 L 492.5 590 Z " /><path fill="rgb(234,217,207)" stroke="rgb(234,217,207)" stroke-width="1" opacity="0.8901960784313725" d="M 497.5 591 L 503 594.5 Q 511.5 605 517 618.5 L 520 629.5 L 519 629.5 Q 513.9 606.6 499.5 593 L 497.5 591 Z " /><path fill="rgb(234,217,207)" stroke="rgb(234,217,207)" stroke-width="1" opacity="0.8901960784313725" d="M 488.5 592 L 487 594.5 L 486.5 596 L 486 594.5 L 488.5 592 Z " /><path fill="rgb(234,217,207)" stroke="rgb(234,217,207)" stroke-width="1" opacity="0.8901960784313725" d="M 485.5 603 L 486 606.5 L 485 606.5 L 485.5 603 Z " /><path fill="rgb(234,217,207)" stroke="rgb(234,217,207)" stroke-width="1" opacity="0.8901960784313725" d="M 712.5 608 L 713 616.5 L 712 616.5 L 712.5 608 Z " /><path fill="rgb(234,217,207)" stroke="rgb(234,217,207)" stroke-width="1" opacity="0.8901960784313725" d="M 486.5 609 L 487 618.5 L 486 618.5 L 486.5 609 Z " /><path fill="rgb(234,217,207)" stroke="rgb(234,217,207)" stroke-width="1" opacity="0.8901960784313725" d="M 627.5 611 L 628 640.5 L 629 645.5 L 628 647.5 L 629 648.5 L 629 696.5 L 630 701.5 L 628.5 704 L 628 699.5 L 628 697.5 L 628 648.5 L 627 646.5 L 628 643.5 L 627 640.5 L 627.5 611 Z " /><path fill="rgb(234,217,207)" stroke="rgb(234,217,207)" stroke-width="1" opacity="0.8901960784313725" d="M 713.5 621 L 714 634.5 L 713 634.5 L 713.5 621 Z " /><path fill="rgb(234,217,207)" stroke="rgb(234,217,207)" stroke-width="1" opacity="0.8901960784313725" d="M 483.5 626 L 484 627.5 L 482.5 630 L 482 628.5 L 483.5 626 Z " /><path fill="rgb(234,217,207)" stroke="rgb(234,217,207)" stroke-width="1" opacity="0.8901960784313725" d="M 481.5 631 L 482 632.5 L 477.5 641 L 477 639.5 L 481.5 631 Z " /><path fill="rgb(234,217,207)" stroke="rgb(234,217,207)" stroke-width="1" opacity="0.8901960784313725" d="M 520.5 631 L 521 633.5 L 520 633.5 L 520.5 631 Z " /><path fill="rgb(234,217,207)" stroke="rgb(234,217,207)" stroke-width="1" opacity="0.8901960784313725" d="M 521.5 637 L 522 643.5 L 521 643.5 L 521.5 637 Z " /><path fill="rgb(234,217,207)" stroke="rgb(234,217,207)" stroke-width="1" opacity="0.8901960784313725" d="M 714.5 637 L 715 649.5 L 714 649.5 L 714.5 637 Z " /><path fill="rgb(234,217,207)" stroke="rgb(234,217,207)" stroke-width="1" opacity="0.8901960784313725" d="M 476.5 642 L 476 643.5 L 475 647.5 L 466.5 661 L 467 659.5 L 476.5 642 Z " /><path fill="rgb(234,217,207)" stroke="rgb(234,217,207)" stroke-width="1" opacity="0.8901960784313725" d="M 522.5 645 L 523 647.5 L 522 647.5 L 522.5 645 Z " /><path fill="rgb(234,217,207)" stroke="rgb(234,217,207)" stroke-width="1" opacity="0.8901960784313725" d="M 522.5 650 L 523 652.5 L 522 652.5 L 522.5 650 Z " /><path fill="rgb(234,217,207)" stroke="rgb(234,217,207)" stroke-width="1" opacity="0.8901960784313725" d="M 715.5 651 L 716 665.5 L 715 665.5 L 715.5 651 Z " /><path fill="rgb(234,217,207)" stroke="rgb(234,217,207)" stroke-width="1" opacity="0.8901960784313725" d="M 521.5 655 L 522 661.5 L 521 661.5 L 521.5 655 Z " /><path fill="rgb(234,217,207)" stroke="rgb(234,217,207)" stroke-width="1" opacity="0.8901960784313725" d="M 465.5 662 L 466 663.5 L 462.5 668 L 463 666.5 L 465.5 662 Z " /><path fill="rgb(234,217,207)" stroke="rgb(234,217,207)" stroke-width="1" opacity="0.8901960784313725" d="M 520.5 664 L 521 667.5 L 520 667.5 L 520.5 664 Z " /><path fill="rgb(234,217,207)" stroke="rgb(234,217,207)" stroke-width="1" opacity="0.8901960784313725" d="M 716.5 667 L 717 678.5 L 716 678.5 L 716.5 667 Z " /><path fill="rgb(234,217,207)" stroke="rgb(234,217,207)" stroke-width="1" opacity="0.8901960784313725" d="M 461.5 669 L 460.5 671 L 461.5 669 Z " /><path fill="rgb(234,217,207)" stroke="rgb(234,217,207)" stroke-width="1" opacity="0.8901960784313725" d="M 519.5 669 L 520 671.5 L 519 671.5 L 519.5 669 Z " /><path fill="rgb(234,217,207)" stroke="rgb(234,217,207)" stroke-width="1" opacity="0.8901960784313725" d="M 459.5 672 L 458.5 674 L 459.5 672 Z " /><path fill="rgb(234,217,207)" stroke="rgb(234,217,207)" stroke-width="1" opacity="0.8901960784313725" d="M 518.5 673 L 519 675.5 L 518 675.5 L 518.5 673 Z " /><path fill="rgb(234,217,207)" stroke="rgb(234,217,207)" stroke-width="1" opacity="0.8901960784313725" d="M 457.5 675 L 457 676.5 L 454.5 680 L 456 677.5 L 457.5 675 Z " /><path fill="rgb(234,217,207)" stroke="rgb(234,217,207)" stroke-width="1" opacity="0.8901960784313725" d="M 517.5 677 L 518 679.5 L 515.5 686 L 515 684.5 L 517.5 677 Z " /><path fill="rgb(234,217,207)" stroke="rgb(234,217,207)" stroke-width="1" opacity="0.8901960784313725" d="M 453.5 681 L 452 683.5 L 434.5 707 L 437 703.5 L 453.5 681 Z " /><path fill="rgb(234,217,207)" stroke="rgb(234,217,207)" stroke-width="1" opacity="0.8901960784313725" d="M 717.5 685 L 718 693.5 L 717 693.5 L 717.5 685 Z " /><path fill="rgb(234,217,207)" stroke="rgb(234,217,207)" stroke-width="1" opacity="0.8901960784313725" d="M 514.5 687 L 515 689.5 L 513.5 692 L 513 690.5 L 514.5 687 Z " /><path fill="rgb(234,217,207)" stroke="rgb(234,217,207)" stroke-width="1" opacity="0.8901960784313725" d="M 512.5 693 L 513 694.5 L 510.5 700 L 510 698.5 L 512.5 693 Z " /><path fill="rgb(234,217,207)" stroke="rgb(234,217,207)" stroke-width="1" opacity="0.8901960784313725" d="M 718.5 698 L 719 709.5 L 718 709.5 L 718.5 698 Z " /><path fill="rgb(234,217,207)" stroke="rgb(234,217,207)" stroke-width="1" opacity="0.8901960784313725" d="M 509.5 701 L 510 702.5 L 505.5 712 L 505 710.5 L 509.5 701 Z " /><path fill="rgb(234,217,207)" stroke="rgb(234,217,207)" stroke-width="1" opacity="0.8901960784313725" d="M 629.5 705 L 630 708.5 L 629 708.5 L 629.5 705 Z " /><path fill="rgb(234,217,207)" stroke="rgb(234,217,207)" stroke-width="1" opacity="0.8901960784313725" d="M 433.5 708 L 430 712.5 Q 413.4 734.9 392.5 753 Q 375.2 769.2 354.5 782 L 356.5 779 L 379.5 763 L 416 728.5 L 433.5 708 Z " /><path fill="rgb(234,217,207)" stroke="rgb(234,217,207)" stroke-width="1" opacity="0.8901960784313725" d="M 629.5 710 L 630 767.5 L 629 767.5 L 629.5 710 Z " /><path fill="rgb(234,217,207)" stroke="rgb(234,217,207)" stroke-width="1" opacity="0.8901960784313725" d="M 504.5 713 L 505 714.5 L 497.5 728 L 498 726.5 L 504.5 713 Z " /><path fill="rgb(234,217,207)" stroke="rgb(234,217,207)" stroke-width="1" opacity="0.8901960784313725" d="M 719.5 718 L 720 729.5 L 719 729.5 L 719.5 718 Z " /><path fill="rgb(234,217,207)" stroke="rgb(234,217,207)" stroke-width="1" opacity="0.8901960784313725" d="M 495.5 731 L 495 732.5 L 492.5 737 L 493 735.5 L 495.5 731 Z " /><path fill="rgb(234,217,207)" stroke="rgb(234,217,207)" stroke-width="1" opacity="0.8901960784313725" d="M 720.5 737 L 721 753.5 L 720 753.5 L 720.5 737 Z " /><path fill="rgb(234,217,207)" stroke="rgb(234,217,207)" stroke-width="1" opacity="0.8901960784313725" d="M 491.5 738 L 492 739.5 L 466 777 Q 463.3 775.9 464 778.5 L 450.5 793 L 447 795.5 Q 447.8 797.8 445.5 797 L 441 800.5 L 450.5 791 L 452 791 L 475 763.5 L 491.5 738 Z " /><path fill="rgb(234,217,207)" stroke="rgb(234,217,207)" stroke-width="1" opacity="0.8901960784313725" d="M 720.5 755 L 721 757.5 L 720 757.5 L 720.5 755 Z " /><path fill="rgb(234,217,207)" stroke="rgb(234,217,207)" stroke-width="1" opacity="0.8901960784313725" d="M 721.5 759 L 722 821.5 L 721 822.5 L 720.5 832 L 720 822.5 L 721 821.5 L 721.5 759 Z " /><path fill="rgb(234,217,207)" stroke="rgb(234,217,207)" stroke-width="1" opacity="0.8901960784313725" d="M 629.5 770 L 630 787.5 L 625.5 794 L 618.5 795 L 618.5 794 Q 626.1 795.1 628 790.5 L 629 787.5 L 629.5 770 Z " /><path fill="rgb(234,217,207)" stroke="rgb(234,217,207)" stroke-width="1" opacity="0.8901960784313725" d="M 352.5 782 L 351.5 784 L 324.5 798 L 324.5 797 Q 340 791 352.5 782 Z " /><path fill="rgb(234,217,207)" stroke="rgb(234,217,207)" stroke-width="1" opacity="0.8901960784313725" d="M 566.5 791 L 582.5 791 L 583.5 792 L 594.5 792 L 603.5 794 L 616 794.5 L 603.5 795 L 594.5 793 L 566.5 792 L 559 796.5 Q 557.6 805.9 563.5 808 L 571 811.5 L 569.5 812 Q 562.8 809.8 559 804.5 L 558 796.5 L 562.5 792 L 566.5 791 Z " /><path fill="rgb(234,217,207)" stroke="rgb(234,217,207)" stroke-width="1" opacity="0.8901960784313725" d="M 321.5 798 L 323 798.5 L 317.5 801 L 317.5 800 L 321.5 798 Z " /><path fill="rgb(234,217,207)" stroke="rgb(234,217,207)" stroke-width="1" opacity="0.8901960784313725" d="M 314.5 801 L 316 801.5 Q 312.3 804.8 305.5 805 L 305.5 804 L 314.5 801 Z " /><path fill="rgb(234,217,207)" stroke="rgb(234,217,207)" stroke-width="1" opacity="0.8901960784313725" d="M 439.5 802 L 437.5 805 Q 422 818.5 403.5 829 L 377.5 841 L 366.5 845 L 359.5 846 L 359.5 845 L 366.5 844 L 377.5 840 L 403.5 828 Q 423.2 816.7 439.5 802 Z " /><path fill="rgb(234,217,207)" stroke="rgb(234,217,207)" stroke-width="1" opacity="0.8901960784313725" d="M 302.5 805 L 304 805.5 L 293.5 809 L 281.5 809 L 276 813.5 L 275.5 815 L 275 813.5 L 281.5 808 L 293.5 808 L 302.5 805 Z " /><path fill="rgb(234,217,207)" stroke="rgb(234,217,207)" stroke-width="1" opacity="0.8901960784313725" d="M 575.5 813 L 584.5 818 L 600 833.5 L 622 865.5 L 620 864.5 L 599 833.5 L 585.5 820 L 575.5 814 L 575.5 813 Z " /><path fill="rgb(234,217,207)" stroke="rgb(234,217,207)" stroke-width="1" opacity="0.8901960784313725" d="M 275.5 819 Q 278.8 829.8 287 835.5 L 279 828.5 L 275 821.5 L 275.5 819 Z " /><path fill="rgb(234,217,207)" stroke="rgb(234,217,207)" stroke-width="1" opacity="0.8901960784313725" d="M 719.5 834 L 720 839.5 L 718.5 844 L 718 840.5 L 719.5 834 Z " /><path fill="rgb(234,217,207)" stroke="rgb(234,217,207)" stroke-width="1" opacity="0.8901960784313725" d="M 288.5 836 L 289.5 838 L 288.5 836 Z " /><path fill="rgb(234,217,207)" stroke="rgb(234,217,207)" stroke-width="1" opacity="0.8901960784313725" d="M 291.5 838 Q 300.1 844.9 313 847.5 L 310.5 848 L 295.5 842 L 291.5 838 Z " /><path fill="rgb(234,217,207)" stroke="rgb(234,217,207)" stroke-width="1" opacity="0.8901960784313725" d="M 353.5 846 L 357 846.5 L 348.5 848 L 348.5 847 L 353.5 846 Z " /><path fill="rgb(234,217,207)" stroke="rgb(234,217,207)" stroke-width="1" opacity="0.8901960784313725" d="M 717.5 846 L 718 849.5 L 717 849.5 L 717.5 846 Z " /><path fill="rgb(234,217,207)" stroke="rgb(234,217,207)" stroke-width="1" opacity="0.8901960784313725" d="M 316.5 848 L 338.5 849 Q 340 846.5 345.5 848 L 345.5 849 L 321.5 850 L 316.5 849 L 316.5 848 Z " /><path fill="rgb(234,217,207)" stroke="rgb(234,217,207)" stroke-width="1" opacity="0.8901960784313725" d="M 716.5 851 L 717 853.5 L 714.5 859 L 714 857.5 L 716.5 851 Z " /><path fill="rgb(234,217,207)" stroke="rgb(234,217,207)" stroke-width="1" opacity="0.8901960784313725" d="M 712.5 863 L 713 864.5 Q 707.2 878.2 696.5 887 L 683.5 894 L 683.5 893 Q 695.5 888.5 703 879.5 L 712.5 863 Z " /><path fill="rgb(234,217,207)" stroke="rgb(234,217,207)" stroke-width="1" opacity="0.8901960784313725" d="M 622.5 867 L 623.5 869 L 622.5 867 Z " /><path fill="rgb(234,217,207)" stroke="rgb(234,217,207)" stroke-width="1" opacity="0.8901960784313725" d="M 624.5 870 L 626.5 873 L 624.5 870 Z " /><path fill="rgb(234,217,207)" stroke="rgb(234,217,207)" stroke-width="1" opacity="0.8901960784313725" d="M 627.5 874 Q 633 884 641.5 891 L 651 895.5 L 648.5 896 L 637 889 L 627.5 874 Z " /><path fill="rgb(234,217,207)" stroke="rgb(234,217,207)" stroke-width="1" opacity="0.8901960784313725" d="M 676.5 895 L 679 895.5 L 670.5 898 L 657.5 898 L 657.5 897 Q 669.6 898.6 676.5 895 Z " /><path fill="rgb(234,217,207)" stroke="rgb(234,217,207)" stroke-width="1" opacity="0.8901960784313725" d="M 652.5 896 L 656 896.5 L 652.5 897 L 652.5 896 Z " /></svg>